<svg height="512pt" viewBox="0 -16 512.0004 512" width="512pt" xmlns="http://www.w3.org/2000/svg"><path d="m298.351562 379.773438-4.121093 8.730468c-25.140625 53.207032-79.238281 87.464844-138.019531 87.464844h-.859376c-2.058593-.007812-4.121093-.058594-6.167968-.148438-20.441406-.921874-40.070313-5.820312-58.511719-14.601562l-69.648437 18.230469c-1.410157.371093-2.839844.550781-4.261719.550781-4.570313 0-9.019531-1.878906-12.238281-5.320312-4.210938-4.507813-5.613282-10.929688-3.652344-16.78125l20.878906-62.296876c-11.808594-22.039062-17.96875-46.757812-17.867188-71.871093.269532-67.816407 46.46875-127.726563 112.347657-145.675781l9.222656-2.507813 23.730469 28.027344zm0 0" fill="#00eccf"/><path d="m298.351562 379.773438-4.121093 8.730468c-25.140625 53.207032-79.238281 87.464844-138.019531 87.464844h-.859376c-2.058593-.007812-4.121093-.058594-6.167968-.148438v-272.242187zm0 0" fill="#00cab1"/><path d="m507.742188 399.882812c-3.03125 3.230469-7.210938 5-11.519532 5-1.339844 0-2.679687-.171874-4.011718-.519531l-97.71875-25.570312c-.21875-.058594-.449219-.089844-.679688-.089844-.449219 0-.921875.109375-1.351562.320313-27.269532 13.101562-56.507813 19.730468-86.898438 19.730468h-.011719c-109.929687.007813-199.808593-88.96875-200.367187-198.335937-.28125-53.320313 20.339844-103.527344 58.046875-141.378907 37.652343-37.808593 88.851562-58.769531 142.332031-59.0273432v-.0117188c53.078125 0 102.988281 20.261719 140.640625 57.089844 37.910156 37.097656 59.109375 86.835937 59.699219 140.046875.378906 33.847656-7.941406 67.386719-24.0625 96.996093-.316406.582032-.367188 1.300782-.136719 1.980469l29.480469 87.96875c1.839844 5.511719.527344 11.558594-3.441406 15.800781zm0 0" fill="#fff5f5"/><path d="m507.742188 399.882812c-3.03125 3.230469-7.210938 5-11.519532 5-1.339844 0-2.679687-.171874-4.011718-.519531l-97.71875-25.570312c-.21875-.058594-.449219-.089844-.679688-.089844-.449219 0-.921875.109375-1.351562.320313-27.269532 13.101562-56.507813 19.730468-86.898438 19.730468v-398.753906c53.078125 0 102.988281 20.261719 140.640625 57.089844 37.910156 37.097656 59.109375 86.835937 59.699219 140.046875.378906 33.847656-7.941406 67.386719-24.0625 96.996093-.316406.582032-.367188 1.300782-.136719 1.980469l29.480469 87.96875c1.839844 5.511719.527344 11.558594-3.441406 15.800781zm0 0" fill="#efe2dd"/><path d="m378.453125 158.765625c0-22.507813-14.019531-41.808594-33.78125-49.628906v-26.558594c0-8.277344-6.71875-15-15-15s-15 6.722656-15 15v22.839844h-17.949219v-22.839844c0-8.277344-6.722656-15-15-15-8.289062 0-15 6.722656-15 15v24.25c-15.550781 4.421875-26.960937 18.75-26.960937 35.6875v109.210937c0 16.9375 11.410156 31.269532 26.960937 35.6875v24.25c0 8.28125 6.710938 15 15 15 8.277344 0 15-6.71875 15-15v-22.839843h17.949219v22.839843c0 8.28125 6.71875 15 15 15s15-6.71875 15-15v-26.558593c19.761719-7.820313 33.78125-27.121094 33.78125-49.628907 0-15.039062-6.25-28.648437-16.300781-38.347656 10.050781-9.710937 16.300781-23.320312 16.300781-38.363281zm-53.351563 100.058594h-48.238281c-3.921875 0-7.101562-3.1875-7.101562-7.097657v-39.601562h55.339843c12.878907 0 23.351563 10.472656 23.351563 23.351562 0 12.867188-10.472656 23.347657-23.351563 23.347657zm0-76.699219h-55.339843v-39.609375c0-3.910156 3.179687-7.097656 7.101562-7.097656h48.238281c12.878907 0 23.351563 10.480469 23.351563 23.347656 0 12.882813-10.472656 23.359375-23.351563 23.359375zm0 0" fill="#ffda2d"/><path d="m362.152344 197.125c10.050781 9.703125 16.300781 23.308594 16.300781 38.351562 0 22.507813-14.019531 41.808594-33.78125 49.628907v26.558593c0 8.277344-6.71875 15-15 15s-15-6.722656-15-15v-22.839843h-9.109375v-30h19.539062c12.878907 0 23.351563-10.480469 23.351563-23.351563 0-12.878906-10.472656-23.347656-23.351563-23.347656h-19.539062v-30h19.539062c12.878907 0 23.351563-10.480469 23.351563-23.359375 0-12.867187-10.472656-23.347656-23.351563-23.347656h-19.539062v-30h9.109375v-22.839844c0-8.277344 6.71875-15 15-15s15 6.722656 15 15v26.558594c19.761719 7.820312 33.78125 27.121093 33.78125 49.628906 0 15.042969-6.25 28.652344-16.300781 38.359375zm0 0" fill="#fdbf00"/></svg>