<svg height="512pt" viewBox="-81 0 512 512" width="512pt" xmlns="http://www.w3.org/2000/svg"><path d="m335 69.71875v372.5625c0 30.21875-24.5 54.71875-54.71875 54.71875h-210.570312c-30.210938 0-54.710938-24.5-54.710938-54.71875v-372.5625c0-30.21875 24.5-54.71875 54.710938-54.71875h210.570312c30.21875 0 54.71875 24.5 54.71875 54.71875zm0 0" fill="#fff5f5"/><path d="m335 69.71875v372.5625c0 30.21875-24.5 54.71875-54.71875 54.71875h-105.28125v-482h105.28125c30.21875 0 54.71875 24.5 54.71875 54.71875zm0 0" fill="#efe2dd"/><path d="m247.871094 217.648438c0-22.519532-14.011719-41.820313-33.78125-49.636719v-26.550781c0-8.289063-6.710938-15-15-15-8.28125 0-15 6.710937-15 15v22.828124h-17.949219v-22.828124c0-8.289063-6.71875-15-15-15s-15 6.710937-15 15v24.238281c-15.539063 4.429687-26.960937 18.75-26.960937 35.699219v109.203124c0 16.949219 11.421874 31.269532 26.960937 35.699219v24.238281c0 8.289063 6.71875 15 15 15s15-6.710937 15-15v-22.828124h17.949219v22.828124c0 8.289063 6.71875 15 15 15 8.289062 0 15-6.710937 15-15v-26.550781c19.769531-7.816406 33.78125-27.117187 33.78125-49.636719 0-15.042968-6.25-28.640624-16.300782-38.351562 10.050782-9.710938 16.300782-23.308594 16.300782-38.351562zm-53.351563 100.0625h-48.238281c-3.921875 0-7.101562-3.191407-7.101562-7.109376v-39.601562h55.339843c12.878907 0 23.351563 10.480469 23.351563 23.351562 0 12.878907-10.472656 23.359376-23.351563 23.359376zm0-76.710938h-55.339843v-39.601562c0-3.917969 3.179687-7.109376 7.101562-7.109376h48.238281c12.878907 0 23.351563 10.480469 23.351563 23.359376 0 12.871093-10.472656 23.351562-23.351563 23.351562zm0 0" fill="#ffda2d"/><path d="m280.28125 0h-210.570312c-38.441407 0-69.710938 31.269531-69.710938 69.71875v372.5625c0 38.449219 31.269531 69.71875 69.710938 69.71875h210.570312c38.4375 0 69.71875-31.269531 69.71875-69.71875v-372.5625c0-38.449219-31.28125-69.71875-69.71875-69.71875zm39.71875 442.28125c0 21.898438-17.820312 39.71875-39.71875 39.71875h-210.570312c-21.902344 0-39.710938-17.820312-39.710938-39.71875v-372.5625c0-21.898438 17.808594-39.71875 39.710938-39.71875h14.21875c0 14.378906 11.699218 26.089844 26.082031 26.089844h130c14.378906 0 26.089843-11.710938 26.089843-26.089844h14.179688c21.898438 0 39.71875 17.820312 39.71875 39.71875zm0 0" fill="#09607d"/><path d="m223.96875 447.308594c0 8.28125-6.707031 15-15 15h-67.949219c-8.28125 0-15-6.71875-15-15 0-8.289063 6.71875-15 15-15h67.949219c8.292969 0 15 6.710937 15 15zm0 0" fill="#09607d"/><path d="m208.96875 462.308594h-33.96875v-30h33.96875c8.292969 0 15 6.710937 15 15 0 8.28125-6.707031 15-15 15zm0 0" fill="#07485e"/><path d="m231.570312 256c10.050782 9.710938 16.300782 23.308594 16.300782 38.351562 0 22.519532-14.011719 41.820313-33.78125 49.636719v26.550781c0 8.289063-6.710938 15-15 15-8.28125 0-15-6.710937-15-15v-22.828124h-9.089844v-30h19.519531c12.878907 0 23.351563-10.480469 23.351563-23.359376 0-12.871093-10.472656-23.351562-23.351563-23.351562h-19.519531v-30h19.519531c12.878907 0 23.351563-10.480469 23.351563-23.351562 0-12.878907-10.472656-23.359376-23.351563-23.359376h-19.519531v-30h9.089844v-22.828124c0-8.289063 6.71875-15 15-15 8.289062 0 15 6.710937 15 15v26.550781c19.769531 7.816406 33.78125 27.117187 33.78125 49.636719 0 15.042968-6.25 28.640624-16.300782 38.351562zm0 0" fill="#fdbf00"/><path d="m350 69.71875v372.5625c0 38.449219-31.28125 69.71875-69.71875 69.71875h-105.28125v-30h105.28125c21.898438 0 39.71875-17.820312 39.71875-39.71875v-372.5625c0-21.898438-17.820312-39.71875-39.71875-39.71875h-14.179688c0 14.378906-11.710937 26.089844-26.089843 26.089844h-65.011719v-56.089844h105.28125c38.4375 0 69.71875 31.269531 69.71875 69.71875zm0 0" fill="#07485e"/></svg>