<svg height="512pt" viewBox="-54 0 512 512" width="512pt" xmlns="http://www.w3.org/2000/svg"><path d="m367.558594 407.300781c0 57.730469-47 104.699219-104.761719 104.699219h-192.738281c-17.796875 0-32.289063-14.480469-32.289063-32.28125v-54.449219l-11.5 12.28125c-2.949219 3.160157-6.941406 4.75-10.949219 4.75-3.671874 0-7.351562-1.339843-10.25-4.050781-6.050781-5.660156-6.359374-15.148438-.699218-21.199219l32.398437-34.609375c4.082031-4.363281 9.832031-6.882812 15.800781-6.929687h.179688.019531.199219c5.972656.046875 11.722656 2.566406 15.800781 6.929687l32.402344 34.609375c5.65625 6.050781 5.347656 15.539063-.703125 21.199219-6.046875 5.660156-15.539062 5.351562-21.199219-.699219l-11.5-12.28125v54.449219c0 1.261719 1.03125 2.28125 2.289063 2.28125h192.738281c41.222656 0 74.761719-33.511719 74.761719-74.699219 0-8.28125 6.707031-15 15-15 8.277344 0 15 6.71875 15 15zm0 0" fill="#09607d"/><path d="m400.945312 78.109375-32.386718 34.609375c-3.652344 3.890625-8.621094 6.320312-13.890625 6.832031-.691407.097657-1.402344.148438-2.109375.148438-.722656 0-1.421875-.050781-2.113282-.148438-5.269531-.511719-10.25-2.941406-13.886718-6.832031l-32.402344-34.609375c-5.660156-6.039063-5.347656-15.539063.699219-21.199219 6.050781-5.660156 15.542969-5.351562 21.203125.699219l11.5 12.28125v-37.609375c0-1.261719-1.03125-2.28125-2.292969-2.28125h-192.738281c-41.21875 0-74.757813 33.511719-74.757813 74.699219 0 8.28125-6.71875 15-15 15s-15-6.71875-15-15c0-57.730469 47-104.699219 104.757813-104.699219h192.738281c17.800781 0 32.292969 14.480469 32.292969 32.28125v37.609375l11.488281-12.28125c5.671875-6.050781 15.160156-6.359375 21.210937-.699219 6.039063 5.660156 6.359376 15.160156.6875 21.199219zm0 0" fill="#09607d"/><path d="m110.660156 226.429688c0-17.417969-10.269531-32.480469-25.070312-39.449219v-17.320313c0-8.28125-6.710938-15-15-15-8.28125 0-15 6.71875-15 15v13.191406h-5.578125v-13.191406c0-8.28125-6.722657-15-15-15-8.28125 0-15 6.71875-15 15v15.351563c-11.703125 4.589843-20.011719 16-20.011719 29.308593v81.359376c0 13.308593 8.308594 24.71875 20.011719 29.308593v15.351563c0 8.28125 6.71875 15 15 15 8.277343 0 15-6.71875 15-15v-13.191406h5.578125v13.191406c0 8.28125 6.71875 15 15 15 8.289062 0 15-6.71875 15-15v-17.320313c14.800781-6.96875 25.070312-22.03125 25.070312-39.449219 0-10.921874-4.039062-20.910156-10.699218-28.570312 6.660156-7.660156 10.699218-17.648438 10.699218-28.570312zm-43.582031 70.71875h-35.605469c-.8125 0-1.472656-.660157-1.472656-1.46875v-25.679688h37.082031c7.488281 0 13.578125 6.089844 13.578125 13.570312 0 7.488282-6.089844 13.578126-13.582031 13.578126zm0-57.148438h-37.078125v-25.679688c0-.808593.660156-1.46875 1.472656-1.46875h35.609375c7.488281 0 13.578125 6.089844 13.578125 13.578126 0 7.480468-6.089844 13.570312-13.582031 13.570312zm0 0" fill="#ffda2d"/><path d="m402.878906 284.570312c0 21.210938-15.230468 38.917969-35.320312 42.789063v12.980469c0 8.28125-6.722656 15-15 15-8.292969 0-15-6.71875-15-15v-12.191406h-20.332032c-8.28125 0-15-6.71875-15-15 0-8.289063 6.71875-15 15-15h42.058594c7.492188 0 13.59375-6.089844 13.59375-13.578126 0-7.480468-6.101562-13.570312-13.59375-13.570312h-13.457031c-24.042969 0-43.601563-19.550781-43.601563-43.570312 0-21.210938 15.230469-38.917969 35.332032-42.789063v-14.980469c0-8.28125 6.707031-15 15-15 8.277344 0 15 6.71875 15 15v14.191406h20.320312c8.289063 0 15 6.71875 15 15 0 8.289063-6.710937 15-15 15h-42.050781c-7.5 0-13.601563 6.089844-13.601563 13.578126 0 7.480468 6.101563 13.570312 13.601563 13.570312h13.457031c24.042969 0 43.59375 19.550781 43.59375 43.570312zm0 0" fill="#00eccf"/><path d="m367.558594 407.300781c0 57.730469-47 104.699219-104.761719 104.699219h-62.179687v-30h62.179687c41.222656 0 74.761719-33.511719 74.761719-74.699219 0-8.28125 6.707031-15 15-15 8.277344 0 15 6.71875 15 15zm0 0" fill="#07485e"/><path d="m400.945312 78.109375-32.386718 34.609375c-3.652344 3.890625-8.621094 6.320312-13.890625 6.832031-.691407.097657-1.402344.148438-2.109375.148438-.722656 0-1.421875-.050781-2.113282-.148438-5.269531-.511719-10.25-2.941406-13.886718-6.832031l-32.402344-34.609375c-5.660156-6.039063-5.347656-15.539063.699219-21.199219 6.050781-5.660156 15.542969-5.351562 21.203125.699219l11.5 12.28125v-37.609375c0-1.261719-1.03125-2.28125-2.292969-2.28125h-134.648437v-30h134.652343c17.796875 0 32.289063 14.480469 32.289063 32.28125v37.609375l11.488281-12.28125c5.671875-6.050781 15.160156-6.359375 21.210937-.699219 6.039063 5.660156 6.359376 15.160156.6875 21.199219zm0 0" fill="#07485e"/><path d="m99.960938 255c6.660156 7.660156 10.699218 17.648438 10.699218 28.570312 0 17.417969-10.269531 32.480469-25.070312 39.449219v17.320313c0 8.28125-6.710938 15-15 15-8.28125 0-15-6.71875-15-15v-13.191406h-2.738282v-30h14.226563c7.492187 0 13.582031-6.089844 13.582031-13.578126 0-7.480468-6.089844-13.570312-13.582031-13.570312h-14.226563v-30h14.226563c7.492187 0 13.582031-6.089844 13.582031-13.570312 0-7.488282-6.089844-13.578126-13.582031-13.578126h-14.226563v-30h2.738282v-13.191406c0-8.28125 6.71875-15 15-15 8.289062 0 15 6.71875 15 15v17.320313c14.800781 6.96875 25.070312 22.03125 25.070312 39.449219 0 10.921874-4.039062 20.910156-10.699218 28.570312zm0 0" fill="#fdbf00"/><g fill="#00cab1"><path d="m402.878906 284.570312c0 21.210938-15.230468 38.917969-35.320312 42.789063v12.980469c0 8.28125-6.722656 15-15 15v-57.191406h6.726562c7.492188 0 13.59375-6.089844 13.59375-13.578126 0-7.480468-6.101562-13.570312-13.59375-13.570312h-6.726562v-30h6.726562c24.042969 0 43.59375 19.550781 43.59375 43.570312zm0 0"/><path d="m387.878906 213.851562h-35.320312v-59.191406c8.277344 0 15 6.71875 15 15v14.191406h20.320312c8.289063 0 15 6.71875 15 15 0 8.289063-6.710937 15-15 15zm0 0"/></g></svg>