<svg height="512pt" viewBox="0 0 512 512" width="512pt" xmlns="http://www.w3.org/2000/svg"><path d="m422.230469 287.710938c0 42.238281-16.160157 82.910156-45.5 114.519531l-.140625.148437c-24.800782 26.03125-35.320313 60.449219-30.851563 94.621094h-180c4.460938-34.300781-6.636719-70.25-30.457031-95.261719-29.960938-31.777343-45.910156-73.277343-44.992188-116.910156.679688-42.519531 18.191407-83.15625 49.300782-114.359375 31.128906-31.199219 71.679687-48.757812 114.199218-49.449219h.011719c44.597657-.679687 86.71875 16.25 118.609375 47.660157 32.121094 31.640624 49.820313 73.910156 49.820313 119.03125zm0 0" fill="#ffda2d"/><path d="m422.230469 287.710938c0 42.238281-16.160157 82.910156-45.5 114.519531l-.140625.148437c-24.800782 26.03125-35.320313 60.449219-30.851563 94.621094h-91.949219v-375.980469h.011719c44.597657-.679687 86.71875 16.25 118.609375 47.660157 32.121094 31.640624 49.820313 73.910156 49.820313 119.03125zm0 0" fill="#fdbf00"/><path d="m379.550781 497c0 8.28125-6.722656 15-15 15h-221.519531c-8.28125 0-15-6.71875-15-15s6.71875-15 15-15h221.519531c8.277344 0 15 6.71875 15 15zm0 0" fill="#09607d"/><path d="m310.339844 263.058594c0-16.320313-9.179688-30.546875-22.640625-37.789063v-17.691406c0-8.277344-6.71875-15-15-15-8.289063 0-15 6.722656-15 15v12.613281h-7.710938v-12.613281c0-8.277344-6.71875-15-15-15-8.277343 0-15 6.722656-15 15v15.34375c-10.796875 4.867187-18.328125 15.738281-18.328125 28.328125v79.789062c0 12.601563 7.53125 23.472657 18.328125 28.339844v15.339844c0 8.28125 6.722657 15 15 15 8.28125 0 15-6.71875 15-15v-12.609375h7.710938v12.609375c0 8.28125 6.710937 15 15 15 8.28125 0 15-6.71875 15-15v-17.6875c13.460937-7.242188 22.640625-21.472656 22.640625-37.800781v-.199219c0-10.640625-3.890625-20.382812-10.328125-27.882812 6.4375-7.5 10.328125-17.25 10.328125-27.878907zm-30 56.171875c0 7.097656-5.78125 12.878906-12.878906 12.878906h-34.730469c-.589844 0-1.070313-.480469-1.070313-1.070313v-24.890624h35.800782c7.097656 0 12.878906 5.78125 12.878906 12.882812zm0-55.960938c0 7.101563-5.78125 12.878907-12.878906 12.878907h-35.800782v-24.898438c0-.589844.480469-1.058594 1.070313-1.058594h34.730469c7.097656 0 12.878906 5.769532 12.878906 12.867188zm0 0" fill="#ff9100"/><path d="m268.789062 15v60.601562c0 8.277344-6.71875 15-15 15-8.289062 0-15-6.722656-15-15v-60.601562c0-8.28125 6.710938-15 15-15 8.28125 0 15 6.71875 15 15zm0 0" fill="#ffda2d"/><path d="m82.128906 68.710938c-5.851562-5.863282-15.351562-5.875-21.214844-.027344-5.863281 5.851562-5.878906 15.347656-.027343 21.214844l42.734375 42.847656c2.933594 2.9375 6.777344 4.40625 10.621094 4.40625 3.835937 0 7.667968-1.460938 10.59375-4.378906 5.867187-5.851563 5.878906-15.347657.027343-21.214844zm0 0" fill="#ffda2d"/><path d="m451.566406 68.464844c-5.867187-5.851563-15.363281-5.839844-21.214844.027344l-42.738281 42.847656c-5.847656 5.863281-5.835937 15.363281.027344 21.210937 2.929687 2.921875 6.761719 4.382813 10.59375 4.382813 3.84375 0 7.691406-1.472656 10.621094-4.410156l42.738281-42.847657c5.847656-5.863281 5.835938-15.363281-.027344-21.210937zm0 0" fill="#fdbf00"/><path d="m55.015625 228.320312h-40.015625c-8.285156 0-15 6.714844-15 15 0 8.285157 6.714844 15 15 15h40.015625c8.285156 0 15-6.714843 15-15 0-8.285156-6.714844-15-15-15zm0 0" fill="#ffda2d"/><path d="m497 228.320312h-40.015625c-8.285156 0-15 6.714844-15 15 0 8.285157 6.714844 15 15 15h40.015625c8.285156 0 15-6.714843 15-15 0-8.285156-6.714844-15-15-15zm0 0" fill="#fdbf00"/><path d="m253.789062 90.601562v-90.601562c8.28125 0 15 6.71875 15 15v60.601562c0 8.277344-6.71875 15-15 15zm0 0" fill="#fdbf00"/><path d="m257.699219 362.109375h-3.910157v-30h13.671876c7.097656 0 12.878906-5.78125 12.878906-12.878906v-.199219c0-7.101562-5.78125-12.882812-12.878906-12.882812h-13.671876v-30h13.671876c7.097656 0 12.878906-5.777344 12.878906-12.878907v-.210937c0-7.097656-5.78125-12.867188-12.878906-12.867188h-13.671876v-30h3.910157v-12.613281c0-8.277344 6.710937-15 15-15 8.28125 0 15 6.722656 15 15v17.691406c13.460937 7.242188 22.640625 21.46875 22.640625 37.789063v.210937c0 10.628907-3.890625 20.378907-10.328125 27.878907 6.4375 7.5 10.328125 17.242187 10.328125 27.882812v.199219c0 16.328125-9.179688 30.558593-22.640625 37.800781v17.6875c0 8.28125-6.71875 15-15 15-8.289063 0-15-6.71875-15-15zm0 0" fill="#f50"/><path d="m379.550781 497c0 8.28125-6.722656 15-15 15h-110.761719v-30h110.761719c8.277344 0 15 6.71875 15 15zm0 0" fill="#07485e"/></svg>