<svg height="512pt" viewBox="0 0 512 512" width="512pt" xmlns="http://www.w3.org/2000/svg"><path d="m437.019531 74.980469c-48.347656-48.351563-112.640625-74.980469-181.019531-74.980469s-132.671875 26.628906-181.019531 74.980469c-48.351563 48.347656-74.980469 112.640625-74.980469 181.019531s26.628906 132.671875 74.980469 181.019531c48.347656 48.351563 112.640625 74.980469 181.019531 74.980469s132.671875-26.628906 181.019531-74.980469c48.351563-48.347656 74.980469-112.640625 74.980469-181.019531s-26.628906-132.671875-74.980469-181.019531zm-21.210937 21.210937c11.511718 11.519532 21.632812 24.058594 30.269531 37.417969h-66.6875c-8.96875-30.769531-21.300781-57.769531-36.460937-79.550781-2.351563-3.367188-4.738282-6.589844-7.179688-9.648438 29.699219 11.179688 56.941406 28.667969 80.058594 51.78125zm-319.617188 0c23.117188-23.113281 50.359375-40.601562 80.058594-51.78125-2.5 3.140625-4.960938 6.449219-7.371094 9.917969-15.070312 21.742187-27.339844 48.640625-36.269531 79.28125h-66.6875c8.636719-13.359375 18.757813-25.898437 30.269531-37.417969zm0 319.617188c-11.640625-11.636719-21.851562-24.328125-30.550781-37.847656h66.839844c8.96875 30.898437 21.320312 58 36.507812 79.867187 2.371094 3.410156 4.792969 6.660156 7.261719 9.761719-29.699219-11.179688-56.941406-28.667969-80.058594-51.78125zm319.617188 0c-23.117188 23.113281-50.359375 40.601562-80.058594 51.78125 2.5-3.140625 4.960938-6.449219 7.371094-9.917969 15.140625-21.84375 27.449218-48.890625 36.398437-79.710937h66.839844c-8.699219 13.519531-18.910156 26.210937-30.550781 37.847656zm46.769531-67.847656h-75.667969c1.210938-5.871094 2.300782-11.839844 3.28125-17.910157l-29.621094-4.769531c-1.242187 7.707031-2.699218 15.277344-4.359374 22.679688h-10.460938v30h2.339844c-7.78125 24.230468-17.851563 45.640624-29.628906 62.609374-10.640626 15.359376-26.820313 33.109376-47.460938 39.21875v-84.019531h-30v84.019531c-20.601562-6.097656-36.738281-23.789062-47.371094-39.078124-11.808594-17-21.910156-38.449219-29.71875-62.75h2.339844v-30h-10.460938c-1.628906-7.25-3.058593-14.671876-4.289062-22.230469l-29.609375 4.820312c.960937 5.898438 2.03125 11.699219 3.199219 17.410157h-75.667969c-10.742187-24.109376-17.183594-50.082032-18.933594-76.960938h86.082031v-30h-86.082031c1.761719-27.039062 8.273438-53.160156 19.121094-77.390625h75.570313c-1.238282 6-2.371094 12.121094-3.371094 18.339844l29.621094 4.769531c1.269531-7.859375 2.761718-15.578125 4.460937-23.109375h10.859375v-30h-2.699219c7.757813-24.058594 17.777344-45.308594 29.488281-62.179687 10.640626-15.359376 26.820313-33.109376 47.460938-39.21875v84.019531h30v-84.019531c20.558594 6.089843 36.691406 23.730468 47.308594 38.988281 11.761718 16.910156 21.839844 38.242187 29.640625 62.410156h-2.699219v30h10.859375c1.652344 7.289063 3.101563 14.742187 4.339844 22.332031l29.601562-4.832031c-.972656-5.929687-2.039062-11.769531-3.230469-17.5h75.570313c10.847656 24.230469 17.359375 50.351563 19.121094 77.390625h-86.082031v30h86.082031c-1.75 26.878906-8.191407 52.851562-18.933594 76.960938zm0 0" fill="#00eccf"/><path d="m437.019531 74.980469c-48.347656-48.351563-112.640625-74.980469-181.019531-74.980469v116.230469h15v-84.019531c20.558594 6.089843 36.691406 23.730468 47.308594 38.988281 11.761718 16.910156 21.839844 38.242187 29.640625 62.410156h-2.699219v30h10.859375c1.652344 7.289063 3.101563 14.742187 4.339844 22.332031l29.601562-4.832031c-.972656-5.929687-2.039062-11.769531-3.230469-17.5h75.570313c10.847656 24.230469 17.359375 50.351563 19.121094 77.390625h-86.082031v30h86.082031c-1.75 26.878906-8.191407 52.851562-18.933594 76.960938h-75.667969c1.210938-5.871094 2.300782-11.839844 3.28125-17.910157l-29.621094-4.769531c-1.242187 7.707031-2.699218 15.277344-4.359374 22.679688h-10.460938v30h2.339844c-7.78125 24.230468-17.851563 45.640624-29.628906 62.609374-10.640626 15.359376-26.820313 33.109376-47.460938 39.21875v-84.019531h-15v116.230469c68.378906 0 132.671875-26.628906 181.019531-74.980469 48.351563-48.347656 74.980469-112.640625 74.980469-181.019531s-26.628906-132.671875-74.980469-181.019531zm-57.628906 58.628906c-8.96875-30.769531-21.300781-57.769531-36.460937-79.550781-2.351563-3.367188-4.738282-6.589844-7.179688-9.648438 29.699219 11.179688 56.941406 28.667969 80.058594 51.78125 11.511718 11.519532 21.632812 24.058594 30.269531 37.417969zm36.417969 282.199219c-23.117188 23.113281-50.359375 40.601562-80.058594 51.78125 2.5-3.140625 4.960938-6.449219 7.371094-9.917969 15.140625-21.84375 27.449218-48.890625 36.398437-79.710937h66.839844c-8.699219 13.519531-18.910156 26.210937-30.550781 37.847656zm0 0" fill="#00cab1"/><path d="m410.429688 256c0 85.339844-69.28125 154.769531-154.429688 154.769531s-154.429688-69.429687-154.429688-154.769531 69.28125-154.769531 154.429688-154.769531 154.429688 69.429687 154.429688 154.769531zm0 0" fill="#ffda2d"/><path d="m410.429688 256c0 85.339844-69.28125 154.769531-154.429688 154.769531v-309.539062c85.148438 0 154.429688 69.429687 154.429688 154.769531zm0 0" fill="#fdbf00"/><path d="m312.839844 227.710938c0-16.371094-9.21875-30.621094-22.730469-37.851563v-17.738281c0-8.292969-6.710937-15-15-15-8.28125 0-15 6.707031-15 15v12.707031h-7.847656v-12.707031c0-8.292969-6.722657-15-15-15-8.292969 0-15 6.707031-15 15v15.410156c-10.839844 4.847656-18.402344 15.738281-18.402344 28.359375v80.21875c0 12.621094 7.5625 23.511719 18.402344 28.359375v15.410156c0 8.292969 6.707031 15 15 15 8.277343 0 15-6.707031 15-15v-12.707031h7.847656v12.707031c0 8.292969 6.71875 15 15 15 8.289063 0 15-6.707031 15-15v-17.738281c13.511719-7.230469 22.730469-21.480469 22.730469-37.851563v-.410156c0-10.640625-3.890625-20.378906-10.328125-27.878906 6.4375-7.5 10.328125-17.238281 10.328125-27.878906zm-30 56.578124c0 7.109376-5.78125 12.882813-12.878906 12.882813h-35.039063c-.582031 0-1.0625-.472656-1.0625-1.0625v-25.109375h36.101563c7.097656 0 12.878906 5.78125 12.878906 12.878906zm0-56.167968c0 7.097656-5.78125 12.878906-12.878906 12.878906h-36.101563v-25.109375c0-.589844.480469-1.0625 1.0625-1.0625h35.039063c7.097656 0 12.878906 5.773437 12.878906 12.882813zm0 0" fill="#ff9100"/><path d="m312.839844 228.121094c0 10.640625-3.890625 20.378906-10.328125 27.878906 6.4375 7.5 10.328125 17.238281 10.328125 27.878906v.410156c0 16.371094-9.21875 30.621094-22.730469 37.851563v17.738281c0 8.292969-6.710937 15-15 15-8.28125 0-15-6.707031-15-15v-12.707031h-4.109375v-30h13.960938c7.097656 0 12.878906-5.773437 12.878906-12.882813v-.410156c0-7.097656-5.78125-12.878906-12.878906-12.878906h-13.960938v-30h13.960938c7.097656 0 12.878906-5.78125 12.878906-12.878906v-.410156c0-7.109376-5.78125-12.882813-12.878906-12.882813h-13.960938v-30h4.109375v-12.707031c0-8.292969 6.71875-15 15-15 8.289063 0 15 6.707031 15 15v17.738281c13.511719 7.230469 22.730469 21.480469 22.730469 37.851563zm0 0" fill="#f50"/></svg>