<svg height="512pt" viewBox="0 -38 512.00096 512" width="512pt" xmlns="http://www.w3.org/2000/svg"><path d="m328.902344 180.140625c0-22.511719-14.023438-41.808594-33.792969-49.628906v-26.5625c0-8.277344-6.707031-15-15-15-8.277344 0-15 6.722656-15 15v22.839843h-17.949219v-22.839843c0-8.277344-6.710937-15-15-15-8.28125 0-15 6.722656-15 15v24.25c-15.539062 4.421875-26.960937 18.75-26.960937 35.691406v109.210937c0 16.9375 11.421875 31.269532 26.960937 35.6875v24.25c0 8.28125 6.71875 15 15 15 8.289063 0 15-6.71875 15-15v-22.839843h17.949219v22.839843c0 8.28125 6.722656 15 15 15 8.292969 0 15-6.71875 15-15v-26.558593c19.769531-7.820313 33.792969-27.121094 33.792969-49.628907 0-15.042968-6.261719-28.652343-16.300782-38.351562 10.039063-9.710938 16.300782-23.320312 16.300782-38.359375zm-53.363282 100.058594h-48.238281c-3.910156 0-7.101562-3.1875-7.101562-7.097657v-39.601562h55.339843c12.882813 0 23.363282 10.46875 23.363282 23.351562 0 12.867188-10.480469 23.347657-23.363282 23.347657zm0-76.699219h-55.339843v-39.609375c0-3.910156 3.191406-7.101563 7.101562-7.101563h48.238281c12.882813 0 23.363282 10.480469 23.363282 23.351563 0 12.878906-10.480469 23.359375-23.363282 23.359375zm0 0" fill="#ffda2d"/><path d="m448.558594 150.230469c-7.589844 3.328125-16.4375-.121094-19.769532-7.710938-30.007812-68.347656-97.828124-112.519531-172.789062-112.519531-98.597656 0-179.757812 75.71875-187.796875 171.789062l10.96875-11.636718c5.679687-6.03125 15.167969-6.3125 21.199219-.621094 6.03125 5.679688 6.308594 15.167969.621094 21.199219l-32.472657 34.449219c-2.058593 2.191406-4.546875 3.910156-7.277343 5.089843-2.722657 1.171875-5.679688 1.800781-8.699219 1.800781-6.03125 0-11.851563-2.511718-15.980469-6.890624l-32.472656-34.449219c-5.6875-6.03125-5.410156-15.519531.621094-21.199219 6.03125-5.691406 15.519531-5.410156 21.199218.621094l12.109375 12.839844c3.460938-52.652344 25.710938-101.671876 63.53125-139.3125 41.261719-41.058594 96.109375-63.679688 154.449219-63.679688 86.859375 0 165.46875 51.210938 200.257812 130.46875 3.332032 7.582031-.117187 16.433594-7.699218 19.761719zm0 0" fill="#ff9100"/><path d="m507.289062 244.25c-2.898437 2.730469-6.597656 4.089844-10.289062 4.089844-3.992188 0-7.960938-1.578125-10.910156-4.710938l-12.03125-12.757812c-3.210938 53.078125-25.507813 102.53125-63.609375 140.449218-41.257813 41.058594-96.109375 63.679688-154.449219 63.679688-86.96875 0-165.617188-51.300781-200.359375-130.699219-3.320313-7.589843.128906-16.429687 7.722656-19.75 7.589844-3.320312 16.4375.140625 19.757813 7.730469 29.96875 68.46875 97.828125 112.71875 172.878906 112.71875 99.058594 0 180.507812-76.429688 187.910156-173.121094l-11.082031 11.75c-5.679687 6.03125-15.167969 6.3125-21.199219.621094-6.03125-5.679688-6.308594-15.167969-.621094-21.199219l32.472657-34.449219c4.089843-4.332031 9.828125-6.832031 15.777343-6.890624h.402344c5.949219.058593 11.6875 2.558593 15.78125 6.890624l32.46875 34.449219c5.6875 6.03125 5.410156 15.519531-.621094 21.199219zm0 0" fill="#00eccf"/><path d="m256 30v-30c86.859375 0 165.46875 51.210938 200.257812 130.46875 3.332032 7.582031-.117187 16.433594-7.699218 19.761719-7.589844 3.328125-16.4375-.121094-19.769532-7.710938-30.007812-68.347656-97.828124-112.519531-172.789062-112.519531zm0 0" fill="#ff641a"/><path d="m507.289062 244.25c-2.898437 2.730469-6.597656 4.089844-10.289062 4.089844-3.992188 0-7.960938-1.578125-10.910156-4.710938l-12.03125-12.757812c-3.210938 53.078125-25.507813 102.53125-63.609375 140.449218-41.257813 41.058594-96.109375 63.679688-154.449219 63.679688v-30c99.058594 0 180.507812-76.429688 187.910156-173.121094l-11.082031 11.75c-5.679687 6.03125-15.167969 6.3125-21.199219.621094-6.03125-5.679688-6.308594-15.167969-.621094-21.199219l32.472657-34.449219c4.089843-4.332031 9.828125-6.832031 15.777343-6.890624h.402344c5.949219.058593 11.6875 2.558593 15.78125 6.890624l32.46875 34.449219c5.6875 6.03125 5.410156 15.519531-.621094 21.199219zm0 0" fill="#00cab1"/><path d="m312.601562 218.5c10.039063 9.699219 16.300782 23.308594 16.300782 38.351562 0 22.507813-14.023438 41.808594-33.792969 49.628907v26.558593c0 8.28125-6.707031 15-15 15-8.277344 0-15-6.71875-15-15v-22.839843h-9.109375v-30h19.539062c12.882813 0 23.363282-10.480469 23.363282-23.347657 0-12.882812-10.480469-23.351562-23.363282-23.351562h-19.539062v-30h19.539062c12.882813 0 23.363282-10.480469 23.363282-23.359375 0-12.871094-10.480469-23.351563-23.363282-23.351563h-19.539062v-30h9.109375v-22.839843c0-8.277344 6.722656-15 15-15 8.292969 0 15 6.722656 15 15v26.5625c19.769531 7.820312 33.792969 27.117187 33.792969 49.628906 0 15.039063-6.261719 28.648437-16.300782 38.359375zm0 0" fill="#fdbf00"/></svg>