<svg height="512pt" viewBox="0 -18 512 512" width="512pt" xmlns="http://www.w3.org/2000/svg"><path d="m496.339844 63.601562v267.410157c0 26.859375-21.78125 48.628906-48.628906 48.628906h-383.421876c-26.847656 0-48.628906-21.769531-48.628906-48.628906v-267.410157c0-26.863281 21.78125-48.632812 48.628906-48.632812h383.421876c26.847656 0 48.628906 21.769531 48.628906 48.632812zm0 0" fill="#fff5f5"/><path d="m496.339844 63.601562v267.410157c0 26.859375-21.78125 48.628906-48.628906 48.628906h-191.710938v-364.671875h191.710938c26.847656 0 48.628906 21.769531 48.628906 48.632812zm0 0" fill="#efe2dd"/><path d="m447.28125 0h-382.5625c-35.6875 0-64.71875 29-64.71875 64.660156v265.289063c0 35.652343 29.03125 64.660156 64.71875 64.660156h20.800781c10.859375 0 19.660157 8.800781 19.660157 19.660156 0 12.03125 4.878906 22.929688 12.761718 30.820313 7.886719 7.890625 18.789063 12.769531 30.828125 12.769531h214.460938c24.078125 0 43.589843-19.519531 43.589843-43.589844 0-5.429687 2.199219-10.347656 5.757813-13.898437 3.5625-3.5625 8.472656-5.761719 13.902344-5.761719h20.800781c35.6875 0 64.71875-29.007813 64.71875-64.660156v-265.289063c0-35.660156-29.03125-64.660156-64.71875-64.660156zm34.71875 329.949219c0 19.109375-15.570312 34.660156-34.71875 34.660156h-382.5625c-19.148438 0-34.71875-15.550781-34.71875-34.660156v-265.289063c0-19.109375 15.570312-34.660156 34.71875-34.660156h382.5625c19.148438 0 34.71875 15.550781 34.71875 34.660156zm0 0" fill="#09607d"/><path d="m512 64.660156v265.289063c0 35.652343-29.03125 64.660156-64.71875 64.660156h-20.800781c-5.429688 0-10.339844 2.199219-13.902344 5.761719-3.558594 3.550781-5.757813 8.46875-5.757813 13.898437 0 24.070313-19.511718 43.589844-43.589843 43.589844h-107.230469v-93.25h191.28125c19.148438 0 34.71875-15.550781 34.71875-34.660156v-265.289063c0-19.109375-15.570312-34.660156-34.71875-34.660156h-191.28125v-30h191.28125c35.6875 0 64.71875 29 64.71875 64.660156zm0 0" fill="#07485e"/><path d="m512 420.5c0 30.101562-24.429688 54.5-54.570312 54.5h-402.859376c-15.070312 0-28.710937-6.101562-38.589843-15.960938-9.871094-9.859374-15.980469-23.488281-15.980469-38.539062 0-14.300781 11.601562-25.878906 25.898438-25.878906h125.5c2.660156 0 5.070312 1.078125 6.8125 2.808594 1.738281 1.742187 2.820312 4.148437 2.820312 6.800781 0 12.328125 10 22.328125 22.347656 22.328125h145.242188c12.347656 0 22.347656-10 22.347656-22.328125 0-5.308594 4.3125-9.609375 9.632812-9.609375h125.5c7.148438 0 13.617188 2.898437 18.308594 7.578125 4.691406 4.679687 7.589844 11.152343 7.589844 18.300781zm0 0" fill="#00eccf"/><path d="m512 420.5c0 30.101562-24.429688 54.5-54.570312 54.5h-201.429688v-48.441406h72.621094c12.347656 0 22.347656-10 22.347656-22.328125 0-5.308594 4.3125-9.609375 9.632812-9.609375h125.5c7.148438 0 13.617188 2.898437 18.308594 7.578125 4.691406 4.679687 7.589844 11.152343 7.589844 18.300781zm0 0" fill="#00cab1"/><g fill="#ffda2d"><path d="m256 66.53125h-.160156c-24.25 0-43.980469 19.730469-43.980469 43.980469v28.929687c0 24.25 19.730469 43.980469 43.980469 43.980469h.160156c24.179688-.09375 43.820312-19.78125 43.820312-43.980469v-28.929687c0-24.203125-19.640624-43.890625-43.820312-43.980469zm13.820312 72.910156c0 7.660156-6.179687 13.886719-13.820312 13.980469h-.160156c-7.710938 0-13.980469-6.273437-13.980469-13.980469v-28.929687c0-7.710938 6.269531-13.980469 13.980469-13.980469h.160156c7.640625.089844 13.820312 6.320312 13.820312 13.980469zm0 0"/><path d="m178.640625 183.425781c8.285156 0 15-6.71875 15-15v-86.894531c0-8.285156-6.714844-15-15-15-8.28125 0-15 6.714844-15 15v86.894531c0 8.28125 6.714844 15 15 15zm0 0"/><path d="m101.441406 183.425781c24.25 0 43.980469-19.730469 43.980469-43.984375v-28.929687c0-24.25-19.730469-43.980469-43.980469-43.980469s-43.980468 19.730469-43.980468 43.980469v28.929687c0 24.253906 19.730468 43.984375 43.980468 43.984375zm-13.980468-72.914062c0-7.710938 6.269531-13.980469 13.980468-13.980469 7.707032 0 13.980469 6.269531 13.980469 13.980469v28.929687c0 7.710938-6.273437 13.980469-13.980469 13.980469-7.710937 0-13.980468-6.269531-13.980468-13.980469zm0 0"/></g><path d="m333.042969 183.425781c8.28125 0 15-6.71875 15-15v-86.894531c0-8.285156-6.71875-15-15-15-8.285157 0-15 6.714844-15 15v86.894531c0 8.28125 6.714843 15 15 15zm0 0" fill="#fdbf00"/><path d="m381.261719 183.425781c8.285156 0 15-6.71875 15-15v-86.894531c0-8.285156-6.714844-15-15-15-8.285157 0-15 6.714844-15 15v86.894531c0 8.28125 6.714843 15 15 15zm0 0" fill="#fdbf00"/><path d="m429.480469 183.425781c8.28125 0 15-6.71875 15-15v-86.894531c0-8.285156-6.71875-15-15-15-8.285157 0-15 6.714844-15 15v86.894531c0 8.28125 6.714843 15 15 15zm0 0" fill="#fdbf00"/><path d="m101.441406 328.078125c24.25 0 43.980469-19.726563 43.980469-43.980469v-28.929687c0-24.253907-19.730469-43.980469-43.980469-43.980469s-43.980468 19.726562-43.980468 43.980469v28.929687c0 24.253906 19.730468 43.980469 43.980468 43.980469zm-13.980468-72.910156c0-7.710938 6.269531-13.980469 13.980468-13.980469 7.707032 0 13.980469 6.269531 13.980469 13.980469v28.929687c0 7.710938-6.273437 13.980469-13.980469 13.980469-7.710937 0-13.980468-6.269531-13.980468-13.980469zm0 0" fill="#ffda2d"/><path d="m333.359375 211.1875c-8.285156 0-15 6.714844-15 15v86.894531c0 8.28125 6.714844 15 15 15 8.28125 0 15-6.71875 15-15v-86.894531c0-8.285156-6.714844-15-15-15zm0 0" fill="#fdbf00"/><path d="m366.578125 255.167969v28.929687c0 24.253906 19.730469 43.980469 43.980469 43.980469s43.980468-19.726563 43.980468-43.980469v-28.929687c0-24.253907-19.730468-43.980469-43.980468-43.980469s-43.980469 19.726562-43.980469 43.980469zm30 0c0-7.710938 6.269531-13.980469 13.980469-13.980469 7.707031 0 13.980468 6.269531 13.980468 13.980469v28.929687c0 7.710938-6.273437 13.980469-13.980468 13.980469-7.710938 0-13.980469-6.269531-13.980469-13.980469zm0 0" fill="#fdbf00"/><path d="m178.957031 211.1875c-8.28125 0-15 6.714844-15 15v86.894531c0 8.28125 6.71875 15 15 15 8.285157 0 15-6.71875 15-15v-86.894531c0-8.285156-6.714843-15-15-15zm0 0" fill="#ffda2d"/><path d="m231.730469 211.1875c-8.28125 0-15 6.714844-15 15v86.894531c0 8.28125 6.71875 15 15 15 8.285156 0 15-6.71875 15-15v-86.894531c0-8.285156-6.714844-15-15-15zm0 0" fill="#ffda2d"/><path d="m279.949219 211.1875c-8.28125 0-15 6.714844-15 15v86.894531c0 8.28125 6.71875 15 15 15 8.285156 0 15-6.71875 15-15v-86.894531c0-8.285156-6.714844-15-15-15zm0 0" fill="#fdbf00"/><path d="m299.820312 110.511719v28.929687c0 24.199219-19.640624 43.886719-43.820312 43.980469v-30c7.640625-.09375 13.820312-6.320313 13.820312-13.980469v-28.929687c0-7.660157-6.179687-13.890625-13.820312-13.980469v-30c24.179688.089844 43.820312 19.777344 43.820312 43.980469zm0 0" fill="#fdbf00"/></svg>