<svg height="512pt" viewBox="-28 0 512 512" width="512pt" xmlns="http://www.w3.org/2000/svg"><g fill="#fff5f5"><path d="m59.578125 441.128906v55.871094c0 8.289062-6.714844 15-14.988281 15-8.289063 0-14.992188-6.710938-14.992188-15v-55.871094c0-8.289062 6.707032-15 14.992188-15 8.273437 0 14.988281 6.710938 14.988281 15zm0 0"/><path d="m59.578125 90.140625v105.960937c0 8.289063-6.714844 15-14.988281 15-8.289063 0-14.992188-6.710937-14.992188-15v-105.960937c0-8.289063 6.707032-15 14.992188-15 8.273437 0 14.988281 6.710937 14.988281 15zm0 0"/><path d="m199.257812 15v105.96875c0 8.28125-6.71875 15-14.992187 15-8.277344 0-14.992187-6.71875-14.992187-15v-105.96875c0-8.28125 6.71875-15 14.992187-15 8.277344 0 14.992187 6.71875 14.992187 15zm0 0"/><path d="m346.582031 15v45.859375c0 8.289063-6.714843 15-14.992187 15-8.285156 0-14.992188-6.710937-14.992188-15v-45.859375c0-8.28125 6.707032-15 14.992188-15 8.277344 0 14.992187 6.71875 14.992187 15zm0 0"/></g><path d="m59.578125 90.140625v105.960937c0 8.289063-6.714844 15-14.988281 15v-135.960937c8.273437 0 14.988281 6.710937 14.988281 15zm0 0" fill="#efe2dd"/><path d="m59.578125 441.128906v55.871094c0 8.289062-6.714844 15-14.988281 15v-85.871094c8.273437 0 14.988281 6.710938 14.988281 15zm0 0" fill="#efe2dd"/><path d="m199.257812 15v105.96875c0 8.28125-6.71875 15-14.992187 15v-135.96875c8.277344 0 14.992187 6.71875 14.992187 15zm0 0" fill="#efe2dd"/><path d="m346.582031 15v45.859375c0 8.289063-6.714843 15-14.992187 15v-75.859375c8.277344 0 14.992187 6.71875 14.992187 15zm0 0" fill="#efe2dd"/><path d="m89.175781 226.710938v184.808593c0 24.589844-20.011719 44.609375-44.585937 44.609375-24.589844 0-44.589844-20.019531-44.589844-44.609375v-184.808593c0-24.601563 20-44.609376 44.585938-44.609376 24.578124 0 44.589843 20.007813 44.589843 44.609376zm0 0" fill="#00eccf"/><path d="m228.851562 150.679688v61.101562l-44.585937 41.917969-44.585937 41.921875v-144.941406c0-24.648438 20-44.710938 44.585937-44.710938 24.589844 0 44.585937 20.0625 44.585937 44.710938zm0 0" fill="#00eccf"/><path d="m376.167969 90.578125v137.183594l-44.578125-14.28125-44.585938-14.28125v-108.621094c0-24.65625 20-44.71875 44.585938-44.71875 24.578125 0 44.578125 20.0625 44.578125 44.71875zm0 0" fill="#00eccf"/><path d="m228.851562 150.679688v61.101562l-44.585937 41.917969v-147.730469c24.589844 0 44.585937 20.0625 44.585937 44.710938zm0 0" fill="#00cab1"/><path d="m89.175781 226.710938v184.808593c0 24.589844-20.011719 44.609375-44.585937 44.609375v-274.027344c24.574218 0 44.585937 20.007813 44.585937 44.609376zm0 0" fill="#00cab1"/><path d="m376.167969 90.578125v137.183594l-44.578125-14.28125v-167.621094c24.578125 0 44.578125 20.0625 44.578125 44.71875zm0 0" fill="#00cab1"/><path d="m456 342.199219c0 93.628906-75.8125 169.800781-169.003906 169.800781-93.183594 0-168.992188-76.171875-168.992188-169.800781 0-93.628907 75.808594-169.800781 168.992188-169.800781 93.191406 0 169.003906 76.171874 169.003906 169.800781zm0 0" fill="#ffda2d"/><path d="m456 342.199219c0 93.628906-75.8125 169.800781-169.003906 169.800781v-339.601562c93.191406 0 169.003906 76.171874 169.003906 169.800781zm0 0" fill="#fdbf00"/><path d="m343.363281 310.230469c0-16.339844-9.183593-30.570313-22.667969-37.808594v-17.773437c0-8.277344-6.707031-15-14.992187-15-8.273437 0-14.988281 6.722656-14.988281 15v12.710937h-7.757813v-12.710937c0-8.277344-6.707031-15-14.992187-15-8.277344 0-14.992188 6.722656-14.992188 15v15.429687c-10.804687 4.863281-18.339844 15.742187-18.339844 28.34375v80.1875c0 12.609375 7.535157 23.480469 18.339844 28.351563v15.417968c0 8.292969 6.71875 15 14.992188 15 8.285156 0 14.992187-6.707031 14.992187-15v-12.699218h7.757813v12.699218c0 8.292969 6.714844 15 14.988281 15 8.289063 0 14.992187-6.707031 14.992187-15v-17.769531c13.484376-7.230469 22.667969-21.46875 22.667969-37.808594v-.402343c0-10.636719-3.886719-20.378907-10.324219-27.878907 6.4375-7.5 10.324219-17.25 10.324219-27.878906zm-29.984375 56.570312c0 7.097657-5.777344 12.878907-12.871094 12.878907h-34.832031c-.589843 0-1.058593-.480469-1.058593-1.070313v-25.089844h35.890624c7.097657 0 12.875 5.769531 12.875 12.878907v.402343zm0-56.160156c0 7.097656-5.777344 12.878906-12.871094 12.878906h-35.894531v-25.097656c0-.59375.472657-1.0625 1.0625-1.0625h34.832031c7.09375 0 12.871094 5.769531 12.871094 12.871094zm0 0" fill="#ff9100"/><path d="m343.363281 310.640625c0 10.628906-3.886719 20.378906-10.324219 27.878906 6.4375 7.5 10.324219 17.242188 10.324219 27.878907v.402343c0 16.339844-9.183593 30.578125-22.667969 37.808594v17.769531c0 8.292969-6.707031 15-14.992187 15-8.273437 0-14.988281-6.707031-14.988281-15v-12.699218h-3.71875v-30h13.511718c7.097657 0 12.875-5.78125 12.875-12.878907v-.402343c0-7.109376-5.777343-12.878907-12.875-12.878907h-13.511718v-30h13.511718c7.097657 0 12.875-5.78125 12.875-12.878906v-.410156c0-7.101563-5.777343-12.871094-12.875-12.871094h-13.511718v-30h3.71875v-12.710937c0-8.277344 6.714844-15 14.988281-15 8.289063 0 14.992187 6.722656 14.992187 15v17.773437c13.484376 7.238281 22.667969 21.46875 22.667969 37.808594zm0 0" fill="#f50"/></svg>