<svg height="511pt" viewBox="0 -21 511.99988 511" width="511pt" xmlns="http://www.w3.org/2000/svg"><path d="m510.894531 302.25c-2.902343 10.160156-11.101562 17.917969-21.421875 20.257812l-.628906.152344c-7.328125 1.648438-12.488281 8.027344-12.570312 15.511719-.339844 34.808594-.648438 38.46875-.769532 39.851563-.988281 11.808593-6.199218 21.710937-15.058594 28.640624-12.203124 9.550782-30.570312 12.691407-53.152343 9.070313-6.140625-.980469-24.621094-3.9375-28.839844 11.8125-.269531 2.300781-1.039063 9.019531-1.53125 16.339844-1.007813 14.921875-13.539063 26.613281-28.527344 26.613281h-176.894531c-15.769531 0-28.589844-12.8125-28.589844-28.550781v-48.746094c0-17.917969-1.4375-32.410156-4.390625-44.300781l-.429687-1.761719-.847656-307.898437 6.738281-4.46875c39.179687-25.984376 89.941406-37.933594 140.460937-33.292969 2.890625.25 5.78125.570312 8.671875.949219 33 4.28125 64.328125 15.773437 90.628907 33.242187 51.371093 34.121094 85.070312 89.398437 90.152343 147.839844.769531 8.871093-.53125 17.671875-1.78125 26.191406-1.230469 8.320313-2.488281 16.929687-1.050781 22.671875.332031 1.308594 4 13.492188 32.339844 41.441406 7.511718 7.402344 10.382812 18.300782 7.492187 28.433594zm0 0" fill="#ffe6db"/><path d="m510.894531 302.25c-2.902343 10.160156-11.101562 17.917969-21.421875 20.257812l-.628906.152344c-7.328125 1.648438-12.488281 8.027344-12.570312 15.511719-.339844 34.808594-.648438 38.46875-.769532 39.851563-.988281 11.808593-6.199218 21.710937-15.058594 28.640624-12.203124 9.550782-30.570312 12.691407-53.152343 9.070313-6.140625-.980469-24.621094-3.9375-28.839844 11.8125-.269531 2.300781-1.039063 9.019531-1.53125 16.339844-1.007813 14.921875-13.539063 26.613281-28.527344 26.613281h-63.953125v-469.019531c2.890625.25 5.78125.570312 8.671875.949219 33 4.28125 64.328125 15.769531 90.628907 33.242187 51.371093 34.121094 85.070312 89.394531 90.152343 147.839844.769531 8.871093-.53125 17.667969-1.78125 26.191406-1.230469 8.320313-2.488281 16.929687-1.050781 22.671875.332031 1.308594 4 13.488281 32.339844 41.441406 7.511718 7.402344 10.382812 18.300782 7.492187 28.433594zm0 0" fill="#ffcbbc"/><path d="m329.414062 196.023438c0 90.574218-73.890624 164.269531-164.703124 164.269531-90.820313 0-164.710938-73.695313-164.710938-164.269531 0-90.574219 73.890625-164.261719 164.710938-164.261719 90.8125 0 164.703124 73.683593 164.703124 164.261719zm0 0" fill="#ffda2d"/><path d="m329.414062 196.023438c0 90.574218-73.890624 164.269531-164.703124 164.269531v-328.53125c90.8125 0 164.703124 73.683593 164.703124 164.261719zm0 0" fill="#fdbf00"/><path d="m226.980469 163.410156c0-18.679687-11.386719-34.75-27.597657-41.613281v-19.53125c0-8.28125-6.710937-15-15-15-8.28125 0-15 6.71875-15 15v15.972656h-9.179687v-15.972656c0-8.28125-6.722656-15-15-15-8.28125 0-15 6.71875-15 15v17.671875c-12.792969 4.328125-22.03125 16.449219-22.03125 30.691406v90.796875c0 14.242188 9.238281 26.363281 22.03125 30.691407v17.660156c0 8.292968 6.71875 15.003906 15 15.003906 8.277344 0 15-6.710938 15-15.003906v-15.960938h9.179687v15.960938c0 8.292968 6.71875 15.003906 15 15.003906 8.289063 0 15-6.710938 15-15.003906v-19.519532c16.210938-6.859374 27.597657-22.929687 27.597657-41.613281v-2.449219c0-11.582031-4.378907-22.160156-11.578125-30.171874 7.199218-8.003907 11.578125-18.582032 11.578125-30.164063zm-30 65.234375c0 8.359375-6.796875 15.171875-15.160157 15.171875h-41.269531c-1.308593 0-2.378906-1.070312-2.378906-2.390625v-30.402343h43.648437c8.363282 0 15.160157 6.808593 15.160157 15.171874zm0-62.785156c0 8.363281-6.796875 15.160156-15.160157 15.160156h-43.648437v-30.390625c0-1.320312 1.070313-2.390625 2.378906-2.390625h41.269531c8.363282 0 15.160157 6.800781 15.160157 15.171875zm0 0" fill="#ff9100"/><path d="m226.980469 165.859375c0 11.582031-4.378907 22.160156-11.578125 30.164063 7.199218 8.011718 11.578125 18.589843 11.578125 30.171874v2.449219c0 18.679688-11.386719 34.75-27.597657 41.613281v19.519532c0 8.292968-6.710937 15.003906-15 15.003906-8.28125 0-15-6.710938-15-15.003906v-15.960938h-4.671874v-30h17.109374c8.363282 0 15.160157-6.8125 15.160157-15.171875v-2.449219c0-8.363281-6.796875-15.171874-15.160157-15.171874h-17.109374v-30.003907h17.109374c8.363282 0 15.160157-6.796875 15.160157-15.160156v-2.449219c0-8.371094-6.796875-15.171875-15.160157-15.171875h-17.109374v-30h4.671874v-15.972656c0-8.28125 6.71875-15 15-15 8.289063 0 15 6.71875 15 15v19.53125c16.210938 6.859375 27.597657 22.929687 27.597657 41.613281zm0 0" fill="#f50"/></svg>