<svg height="512pt" viewBox="0 0 512 512" width="512pt" xmlns="http://www.w3.org/2000/svg"><path d="m372.605469 351.351562c-5.855469-5.855468-15.351563-5.855468-21.210938.003907-5.859375 5.855469-5.855469 15.355469 0 21.210937l48.507813 48.5c2.925781 2.929688 6.765625 4.394532 10.605468 4.394532 3.835938 0 7.675782-1.46875 10.605469-4.394532 5.855469-5.859375 5.855469-15.355468-.003906-21.214844zm0 0" fill="#07485e"/><path d="m138.773438 159.976562c2.929687 2.929688 6.765624 4.394532 10.605468 4.394532 3.835938 0 7.679688-1.464844 10.605469-4.394532 5.859375-5.859374 5.855469-15.355468 0-21.214843l-47.863281-47.851563c-5.855469-5.855468-15.351563-5.855468-21.210938 0-5.859375 5.859375-5.855468 15.355469 0 21.214844zm0 0" fill="#09607d"/><path d="m361.644531 165.398438c3.835938 0 7.675781-1.464844 10.605469-4.394532l48.863281-48.855468c5.859375-5.859376 5.859375-15.355469 0-21.214844-5.855469-5.855469-15.351562-5.859375-21.210937 0l-48.863282 48.855468c-5.859374 5.859376-5.859374 15.355469-.003906 21.214844 2.929688 2.929688 6.769532 4.394532 10.609375 4.394532zm0 0" fill="#07485e"/><path d="m139.085938 351.710938-48.171876 48.167968c-5.859374 5.855469-5.859374 15.351563-.003906 21.210938 2.929688 2.929687 6.769532 4.394531 10.609375 4.394531 3.835938 0 7.675781-1.464844 10.601563-4.394531l48.175781-48.164063c5.855469-5.855469 5.859375-15.355469 0-21.210937-5.855469-5.859375-15.355469-5.859375-21.210937-.003906zm0 0" fill="#09607d"/><path d="m419.875 255.6875c0 90.910156-73.960938 164.859375-164.878906 164.859375-90.921875 0-164.878906-73.949219-164.878906-164.859375 0-90.902344 73.957031-164.859375 164.878906-164.859375 90.917968 0 164.878906 73.957031 164.878906 164.859375zm0 0" fill="#ffda2d"/><path d="m419.875 255.6875c0 90.910156-73.960938 164.859375-164.878906 164.859375v-329.71875c90.917968 0 164.878906 73.957031 164.878906 164.859375zm0 0" fill="#fdbf00"/><path d="m65.679688 380.636719c-36.214844 0-65.679688 29.464843-65.679688 65.679687 0 36.21875 29.464844 65.683594 65.679688 65.683594 36.214843 0 65.679687-29.464844 65.679687-65.683594 0-36.214844-29.464844-65.679687-65.679687-65.679687zm0 0" fill="#00eccf"/><path d="m65.679688 131.363281c36.214843 0 65.679687-29.464843 65.679687-65.679687 0-36.21875-29.464844-65.683594-65.679687-65.683594-36.214844 0-65.679688 29.464844-65.679688 65.683594 0 36.214844 29.464844 65.679687 65.679688 65.679687zm0 0" fill="#00eccf"/><path d="m446.320312 380.636719c-36.214843 0-65.679687 29.464843-65.679687 65.683593 0 36.214844 29.464844 65.679688 65.679687 65.679688 36.214844 0 65.679688-29.464844 65.679688-65.683594 0-36.214844-29.464844-65.679687-65.679688-65.679687zm0 0" fill="#00cab1"/><path d="m446.320312 131.363281c36.214844 0 65.679688-29.464843 65.679688-65.679687 0-36.21875-29.464844-65.683594-65.679688-65.683594-36.214843 0-65.679687 29.464844-65.679687 65.683594 0 36.214844 29.464844 65.679687 65.679687 65.679687zm0 0" fill="#00cab1"/><path d="m317.324219 222.816406c0-18.6875-11.410157-34.769531-27.628907-41.628906v-19.628906c0-8.292969-6.71875-15-15-15s-15 6.707031-15 15v16.089844h-9.230468v-16.089844c0-8.292969-6.707032-15-15-15-8.277344 0-15 6.707031-15 15v17.777344c-12.808594 4.320312-22.058594 16.449218-22.058594 30.699218v91.3125c0 14.238282 9.25 26.371094 22.058594 30.6875v17.78125c0 8.289063 6.722656 15 15 15 8.292968 0 15-6.710937 15-15v-16.089844h9.230468v16.089844c0 8.289063 6.71875 15 15 15s15-6.710937 15-15v-19.628906c16.21875-6.859375 27.628907-22.929688 27.628907-41.628906v-2.703125c0-11.589844-4.378907-22.167969-11.578125-30.167969 7.199218-8 11.578125-18.582031 11.578125-30.160156zm-30 65.742188c0 8.367187-6.796875 15.167968-15.160157 15.167968h-41.367187c-1.320313 0-2.390625-1.070312-2.390625-2.378906v-30.660156h43.757812c8.363282 0 15.160157 6.800781 15.160157 15.167969zm0-63.03125c0 8.359375-6.796875 15.160156-15.160157 15.160156h-43.757812v-30.652344c0-1.316406 1.070312-2.386718 2.390625-2.386718h41.367187c8.363282 0 15.160157 6.808593 15.160157 15.167968zm0 0" fill="#ff9100"/><path d="m317.324219 225.527344c0 11.578125-4.378907 22.160156-11.578125 30.160156 7.199218 8 11.578125 18.578125 11.578125 30.167969v2.703125c0 18.699218-11.410157 34.769531-27.628907 41.628906v19.628906c0 8.289063-6.71875 15-15 15s-15-6.710937-15-15v-16.089844h-4.699218v-30h17.167968c8.363282 0 15.160157-6.800781 15.160157-15.167968v-2.703125c0-8.367188-6.796875-15.167969-15.160157-15.167969h-17.167968v-30h17.167968c8.363282 0 15.160157-6.800781 15.160157-15.160156v-2.710938c0-8.359375-6.796875-15.167968-15.160157-15.167968h-17.167968v-30h4.699218v-16.089844c0-8.292969 6.71875-15 15-15s15 6.707031 15 15v19.628906c16.21875 6.859375 27.628907 22.941406 27.628907 41.628906zm0 0" fill="#f50"/></svg>